{
    "asset" : {
        "generator" : "Khronos glTF Blender I/O v0.9.36",
        "version" : "2.0"
    },
    "scene" : 0,
    "scenes" : [
        {
            "name" : "Scene",
            "nodes" : [
                0,
                1
            ]
        }
    ],
    "nodes" : [
        {
            "mesh" : 0,
            "name" : "Cube"
        },
        {
            "mesh" : 1,
            "name" : "Cube.001"
        }
    ],
    "materials" : [
        {
            "doubleSided" : true,
            "name" : "OuterBuilding",
            "pbrMetallicRoughness" : {
                "baseColorTexture" : {
                    "index" : 0,
                    "texCoord" : 0
                },
                "metallicFactor" : 0.5272727012634277,
                "roughnessFactor" : 0.836363673210144
            }
        },
        {
            "doubleSided" : true,
            "name" : "InnerBuilding",
            "pbrMetallicRoughness" : {
                "baseColorTexture" : {
                    "index" : 1,
                    "texCoord" : 0
                },
                "metallicFactor" : 0,
                "roughnessFactor" : 0.5
            }
        }
    ],
    "meshes" : [
        {
            "name" : "Cube.001",
            "primitives" : [
                {
                    "attributes" : {
                        "POSITION" : 0,
                        "NORMAL" : 1,
                        "TANGENT" : 2,
                        "TEXCOORD_0" : 3
                    },
                    "indices" : 4,
                    "material" : 0
                }
            ]
        },
        {
            "name" : "Cube.011",
            "primitives" : [
                {
                    "attributes" : {
                        "POSITION" : 5,
                        "NORMAL" : 6,
                        "TANGENT" : 7,
                        "TEXCOORD_0" : 8
                    },
                    "indices" : 9,
                    "material" : 1
                }
            ]
        }
    ],
    "textures" : [
        {
            "source" : 0
        },
        {
            "source" : 1
        }
    ],
    "images" : [
        {
            "bufferView" : 5,
            "mimeType" : "image/png",
            "name" : "BuildingTex2"
        },
        {
            "bufferView" : 11,
            "mimeType" : "image/png",
            "name" : "BuildingTex"
        }
    ],
    "accessors" : [
        {
            "bufferView" : 0,
            "componentType" : 5126,
            "count" : 460,
            "max" : [
                21.937602996826172,
                39.29121017456055,
                26.522621154785156
            ],
            "min" : [
                -23.335359573364258,
                -18.73870849609375,
                -21.769073486328125
            ],
            "type" : "VEC3"
        },
        {
            "bufferView" : 1,
            "componentType" : 5126,
            "count" : 460,
            "type" : "VEC3"
        },
        {
            "bufferView" : 2,
            "componentType" : 5126,
            "count" : 460,
            "type" : "VEC4"
        },
        {
            "bufferView" : 3,
            "componentType" : 5126,
            "count" : 460,
            "type" : "VEC2"
        },
        {
            "bufferView" : 4,
            "componentType" : 5123,
            "count" : 756,
            "type" : "SCALAR"
        },
        {
            "bufferView" : 6,
            "componentType" : 5126,
            "count" : 106,
            "max" : [
                5,
                4.204663276672363,
                5
            ],
            "min" : [
                -5,
                -20,
                -5
            ],
            "type" : "VEC3"
        },
        {
            "bufferView" : 7,
            "componentType" : 5126,
            "count" : 106,
            "type" : "VEC3"
        },
        {
            "bufferView" : 8,
            "componentType" : 5126,
            "count" : 106,
            "type" : "VEC4"
        },
        {
            "bufferView" : 9,
            "componentType" : 5126,
            "count" : 106,
            "type" : "VEC2"
        },
        {
            "bufferView" : 10,
            "componentType" : 5123,
            "count" : 168,
            "type" : "SCALAR"
        }
    ],
    "bufferViews" : [
        {
            "buffer" : 0,
            "byteLength" : 5520,
            "byteOffset" : 0
        },
        {
            "buffer" : 0,
            "byteLength" : 5520,
            "byteOffset" : 5520
        },
        {
            "buffer" : 0,
            "byteLength" : 7360,
            "byteOffset" : 11040
        },
        {
            "buffer" : 0,
            "byteLength" : 3680,
            "byteOffset" : 18400
        },
        {
            "buffer" : 0,
            "byteLength" : 1512,
            "byteOffset" : 22080
        },
        {
            "buffer" : 0,
            "byteLength" : 343894,
            "byteOffset" : 23592
        },
        {
            "buffer" : 0,
            "byteLength" : 1272,
            "byteOffset" : 367488
        },
        {
            "buffer" : 0,
            "byteLength" : 1272,
            "byteOffset" : 368760
        },
        {
            "buffer" : 0,
            "byteLength" : 1696,
            "byteOffset" : 370032
        },
        {
            "buffer" : 0,
            "byteLength" : 848,
            "byteOffset" : 371728
        },
        {
            "buffer" : 0,
            "byteLength" : 336,
            "byteOffset" : 372576
        },
        {
            "buffer" : 0,
            "byteLength" : 239178,
            "byteOffset" : 372912
        }
    ],
    "buffers" : [
        {
            "byteLength" : 612092,
            "uri" : "data:application/octet-stream;base64,"
        }
    ]
}
