{
    "asset" : {
        "generator" : "Khronos glTF Blender I/O v0.9.36",
        "version" : "2.0"
    },
    "scene" : 0,
    "scenes" : [
        {
            "name" : "Scene",
            "nodes" : [
                0,
                1,
                2,
                3,
                4,
                5,
                6
            ]
        }
    ],
    "nodes" : [
        {
            "name" : "New Trigger Volume.017",
            "translation" : [
                15,
                -0.049999237060546875,
                -1
            ]
        },
        {
            "name" : "DirLight",
            "rotation" : [
                -0.05654643103480339,
                0.2785007357597351,
                -0.1907748430967331,
                0.9395982027053833
            ],
            "translation" : [
                26.306074142456055,
                48.63683319091797,
                -25.089868545532227
            ]
        },
        {
            "name" : "Point",
            "translation" : [
                -13.37539291381836,
                34.151329040527344,
                -17.063640594482422
            ]
        },
        {
            "name" : "Spot",
            "rotation" : [
                0.11880256235599518,
                0.2430846393108368,
                0.42271706461906433,
                0.8649312853813171
            ],
            "translation" : [
                -17.99692153930664,
                16.144968032836914,
                10.658510208129883
            ]
        },
        {
            "name" : "Camera",
            "rotation" : [
                0.05713566765189171,
                0.8618424534797668,
                -0.4939905107021332,
                0.09968195855617523
            ],
            "translation" : [
                6.017246246337891,
                17.62491798400879,
                -25.53397560119629
            ]
        },
        {
            "mesh" : 0,
            "name" : "Suzanne",
            "scale" : [
                8.454411506652832,
                8.454411506652832,
                8.454411506652832
            ]
        },
        {
            "mesh" : 1,
            "name" : "Plane",
            "scale" : [
                20,
                20,
                20
            ]
        }
    ],
    "materials" : [
        {
            "doubleSided" : true,
            "name" : "Material.001",
            "pbrMetallicRoughness" : {
                "baseColorFactor" : [
                    0.800000011920929,
                    0.800000011920929,
                    0.800000011920929,
                    1
                ],
                "metallicFactor" : 0,
                "roughnessFactor" : 0.5
            }
        },
        {
            "doubleSided" : true,
            "name" : "Material.002",
            "pbrMetallicRoughness" : {
                "baseColorFactor" : [
                    0.800000011920929,
                    0.800000011920929,
                    0.800000011920929,
                    1
                ],
                "metallicFactor" : 0,
                "roughnessFactor" : 0.5
            }
        }
    ],
    "meshes" : [
        {
            "name" : "Suzanne",
            "primitives" : [
                {
                    "attributes" : {
                        "POSITION" : 0,
                        "NORMAL" : 1,
                        "TANGENT" : 2,
                        "TEXCOORD_0" : 3
                    },
                    "indices" : 4,
                    "material" : 0
                }
            ]
        },
        {
            "name" : "Plane",
            "primitives" : [
                {
                    "attributes" : {
                        "POSITION" : 5,
                        "NORMAL" : 6,
                        "TANGENT" : 7,
                        "TEXCOORD_0" : 8
                    },
                    "indices" : 9,
                    "material" : 1
                }
            ]
        }
    ],
    "accessors" : [
        {
            "bufferView" : 0,
            "componentType" : 5126,
            "count" : 556,
            "max" : [
                1.3671875,
                0.984375,
                0.8515625
            ],
            "min" : [
                -1.3671875,
                -0.984375,
                -0.8515625
            ],
            "type" : "VEC3"
        },
        {
            "bufferView" : 1,
            "componentType" : 5126,
            "count" : 556,
            "type" : "VEC3"
        },
        {
            "bufferView" : 2,
            "componentType" : 5126,
            "count" : 556,
            "type" : "VEC4"
        },
        {
            "bufferView" : 3,
            "componentType" : 5126,
            "count" : 556,
            "type" : "VEC2"
        },
        {
            "bufferView" : 4,
            "componentType" : 5123,
            "count" : 2904,
            "type" : "SCALAR"
        },
        {
            "bufferView" : 5,
            "componentType" : 5126,
            "count" : 4,
            "max" : [
                1,
                0,
                1
            ],
            "min" : [
                -1,
                0,
                -1
            ],
            "type" : "VEC3"
        },
        {
            "bufferView" : 6,
            "componentType" : 5126,
            "count" : 4,
            "type" : "VEC3"
        },
        {
            "bufferView" : 7,
            "componentType" : 5126,
            "count" : 4,
            "type" : "VEC4"
        },
        {
            "bufferView" : 8,
            "componentType" : 5126,
            "count" : 4,
            "type" : "VEC2"
        },
        {
            "bufferView" : 9,
            "componentType" : 5123,
            "count" : 6,
            "type" : "SCALAR"
        }
    ],
    "bufferViews" : [
        {
            "buffer" : 0,
            "byteLength" : 6672,
            "byteOffset" : 0
        },
        {
            "buffer" : 0,
            "byteLength" : 6672,
            "byteOffset" : 6672
        },
        {
            "buffer" : 0,
            "byteLength" : 8896,
            "byteOffset" : 13344
        },
        {
            "buffer" : 0,
            "byteLength" : 4448,
            "byteOffset" : 22240
        },
        {
            "buffer" : 0,
            "byteLength" : 5808,
            "byteOffset" : 26688
        },
        {
            "buffer" : 0,
            "byteLength" : 48,
            "byteOffset" : 32496
        },
        {
            "buffer" : 0,
            "byteLength" : 48,
            "byteOffset" : 32544
        },
        {
            "buffer" : 0,
            "byteLength" : 64,
            "byteOffset" : 32592
        },
        {
            "buffer" : 0,
            "byteLength" : 32,
            "byteOffset" : 32656
        },
        {
            "buffer" : 0,
            "byteLength" : 12,
            "byteOffset" : 32688
        }
    ],
    "buffers" : [
        {
            "byteLength" : 32700,
            "uri" : "data:application/octet-stream;base64,"
        }
    ]
}
