{
    "asset" : {
        "generator" : "Khronos glTF Blender I/O v0.9.36",
        "version" : "2.0"
    },
    "scene" : 0,
    "scenes" : [
        {
            "name" : "Scene",
            "nodes" : [
                0
            ]
        }
    ],
    "nodes" : [
        {
            "mesh" : 0,
            "name" : "Sphere",
            "rotation" : [
                0.3177487254142761,
                0.48280173540115356,
                0.23216813802719116,
                0.78232741355896
            ],
            "scale" : [
                1.2528690099716187,
                1.2528690099716187,
                1.2528691291809082
            ],
            "translation" : [
                1.3030855655670166,
                2.153728723526001,
                -3.9688870906829834
            ]
        }
    ],
    "meshes" : [
        {
            "name" : "Sphere",
            "primitives" : [
                {
                    "attributes" : {
                        "POSITION" : 0,
                        "NORMAL" : 1,
                        "TANGENT" : 2,
                        "TEXCOORD_0" : 3
                    },
                    "indices" : 4
                }
            ]
        }
    ],
    "accessors" : [
        {
            "bufferView" : 0,
            "componentType" : 5126,
            "count" : 3968,
            "max" : [
                1.383943796157837,
                1.0747069120407104,
                2.157869815826416
            ],
            "min" : [
                -1.0879625082015991,
                -0.9252930879592896,
                -1.5408241748809814
            ],
            "type" : "VEC3"
        },
        {
            "bufferView" : 1,
            "componentType" : 5126,
            "count" : 3968,
            "type" : "VEC3"
        },
        {
            "bufferView" : 2,
            "componentType" : 5126,
            "count" : 3968,
            "type" : "VEC4"
        },
        {
            "bufferView" : 3,
            "componentType" : 5126,
            "count" : 3968,
            "type" : "VEC2"
        },
        {
            "bufferView" : 4,
            "componentType" : 5123,
            "count" : 5760,
            "type" : "SCALAR"
        }
    ],
    "bufferViews" : [
        {
            "buffer" : 0,
            "byteLength" : 47616,
            "byteOffset" : 0
        },
        {
            "buffer" : 0,
            "byteLength" : 47616,
            "byteOffset" : 47616
        },
        {
            "buffer" : 0,
            "byteLength" : 63488,
            "byteOffset" : 95232
        },
        {
            "buffer" : 0,
            "byteLength" : 31744,
            "byteOffset" : 158720
        },
        {
            "buffer" : 0,
            "byteLength" : 11520,
            "byteOffset" : 190464
        }
    ],
    "buffers" : [
        {
            "byteLength" : 201984,
            "uri" : "data:application/octet-stream;base64,"
        }
    ]
}
