{
    "asset" : {
        "generator" : "Khronos glTF Blender I/O v0.9.36",
        "version" : "2.0"
    },
    "scene" : 0,
    "scenes" : [
        {
            "name" : "Scene",
            "nodes" : [
                0,
                1,
                2
            ]
        }
    ],
    "nodes" : [
        {
            "mesh" : 0,
            "name" : "Barrel",
            "translation" : [
                -5,
                0,
                -5
            ]
        },
        {
            "mesh" : 1,
            "name" : "Crate",
            "translation" : [
                0,
                0,
                -5
            ]
        },
        {
            "mesh" : 2,
            "name" : "Sphere",
            "translation" : [
                5,
                0,
                -5
            ]
        }
    ],
    "materials" : [
        {
            "doubleSided" : true,
            "emissiveFactor" : [
                0,
                0,
                0
            ],
            "name" : "mat_barrel_rusted",
            "pbrMetallicRoughness" : {
                "baseColorFactor" : [
                    1,
                    1,
                    1,
                    1
                ],
                "metallicFactor" : 1,
                "roughnessFactor" : 1
            }
        },
        {
            "doubleSided" : true,
            "emissiveFactor" : [
                0,
                0,
                0
            ],
            "name" : "mat_crate_wood",
            "occlusionTexture" : {
                "index" : 0,
                "texCoord" : 0
            },
            "pbrMetallicRoughness" : {
                "baseColorFactor" : [
                    1,
                    1,
                    1,
                    1
                ],
                "baseColorTexture" : {
                    "index" : 1,
                    "texCoord" : 0
                },
                "metallicFactor" : 1,
                "metallicRoughnessTexture" : {
                    "index" : 0,
                    "texCoord" : 0
                },
                "roughnessFactor" : 1
            }
        },
        {
            "doubleSided" : true,
            "emissiveFactor" : [
                0,
                0,
                0
            ],
            "name" : "mat_sphere_metal",
            "pbrMetallicRoughness" : {
                "baseColorFactor" : [
                    1,
                    1,
                    1,
                    1
                ],
                "metallicFactor" : 1,
                "roughnessFactor" : 1
            }
        }
    ],
    "meshes" : [
        {
            "name" : "mesh_static_barrel",
            "primitives" : [
                {
                    "attributes" : {
                        "POSITION" : 0,
                        "NORMAL" : 1,
                        "TANGENT" : 2,
                        "TEXCOORD_0" : 3
                    },
                    "indices" : 4,
                    "material" : 0
                }
            ]
        },
        {
            "name" : "mesh_static_crate",
            "primitives" : [
                {
                    "attributes" : {
                        "POSITION" : 5,
                        "NORMAL" : 6,
                        "TANGENT" : 7,
                        "TEXCOORD_0" : 8
                    },
                    "indices" : 9,
                    "material" : 1
                }
            ]
        },
        {
            "name" : "Sphere",
            "primitives" : [
                {
                    "attributes" : {
                        "POSITION" : 10,
                        "NORMAL" : 11,
                        "TANGENT" : 12,
                        "TEXCOORD_0" : 13
                    },
                    "indices" : 14,
                    "material" : 2
                }
            ]
        }
    ],
    "textures" : [
        {
            "source" : 0
        },
        {
            "source" : 1
        }
    ],
    "images" : [
        {
            "bufferView" : 10,
            "mimeType" : "image/png",
            "name" : "wh-Untitled"
        },
        {
            "bufferView" : 11,
            "mimeType" : "image/png",
            "name" : "counsel"
        }
    ],
    "accessors" : [
        {
            "bufferView" : 0,
            "componentType" : 5126,
            "count" : 274,
            "max" : [
                1,
                3,
                1.0211659669876099
            ],
            "min" : [
                -1.0174309015274048,
                0,
                -1
            ],
            "type" : "VEC3"
        },
        {
            "bufferView" : 1,
            "componentType" : 5126,
            "count" : 274,
            "type" : "VEC3"
        },
        {
            "bufferView" : 2,
            "componentType" : 5126,
            "count" : 274,
            "type" : "VEC4"
        },
        {
            "bufferView" : 3,
            "componentType" : 5126,
            "count" : 274,
            "type" : "VEC2"
        },
        {
            "bufferView" : 4,
            "componentType" : 5123,
            "count" : 1152,
            "type" : "SCALAR"
        },
        {
            "bufferView" : 5,
            "componentType" : 5126,
            "count" : 14,
            "max" : [
                2,
                4,
                2
            ],
            "min" : [
                -2,
                0,
                -2
            ],
            "type" : "VEC3"
        },
        {
            "bufferView" : 6,
            "componentType" : 5126,
            "count" : 14,
            "type" : "VEC3"
        },
        {
            "bufferView" : 7,
            "componentType" : 5126,
            "count" : 14,
            "type" : "VEC4"
        },
        {
            "bufferView" : 8,
            "componentType" : 5126,
            "count" : 14,
            "type" : "VEC2"
        },
        {
            "bufferView" : 9,
            "componentType" : 5123,
            "count" : 36,
            "type" : "SCALAR"
        },
        {
            "bufferView" : 12,
            "componentType" : 5126,
            "count" : 219,
            "max" : [
                2.4999985694885254,
                5,
                2.49999737739563
            ],
            "min" : [
                -2.4999985694885254,
                0,
                -2.5
            ],
            "type" : "VEC3"
        },
        {
            "bufferView" : 13,
            "componentType" : 5126,
            "count" : 219,
            "type" : "VEC3"
        },
        {
            "bufferView" : 14,
            "componentType" : 5126,
            "count" : 219,
            "type" : "VEC4"
        },
        {
            "bufferView" : 15,
            "componentType" : 5126,
            "count" : 219,
            "type" : "VEC2"
        },
        {
            "bufferView" : 16,
            "componentType" : 5123,
            "count" : 1056,
            "type" : "SCALAR"
        }
    ],
    "bufferViews" : [
        {
            "buffer" : 0,
            "byteLength" : 3288,
            "byteOffset" : 0
        },
        {
            "buffer" : 0,
            "byteLength" : 3288,
            "byteOffset" : 3288
        },
        {
            "buffer" : 0,
            "byteLength" : 4384,
            "byteOffset" : 6576
        },
        {
            "buffer" : 0,
            "byteLength" : 2192,
            "byteOffset" : 10960
        },
        {
            "buffer" : 0,
            "byteLength" : 2304,
            "byteOffset" : 13152
        },
        {
            "buffer" : 0,
            "byteLength" : 168,
            "byteOffset" : 15456
        },
        {
            "buffer" : 0,
            "byteLength" : 168,
            "byteOffset" : 15624
        },
        {
            "buffer" : 0,
            "byteLength" : 224,
            "byteOffset" : 15792
        },
        {
            "buffer" : 0,
            "byteLength" : 112,
            "byteOffset" : 16016
        },
        {
            "buffer" : 0,
            "byteLength" : 72,
            "byteOffset" : 16128
        },
        {
            "buffer" : 0,
            "byteLength" : 1692,
            "byteOffset" : 16200
        },
        {
            "buffer" : 0,
            "byteLength" : 177092,
            "byteOffset" : 17892
        },
        {
            "buffer" : 0,
            "byteLength" : 2628,
            "byteOffset" : 194984
        },
        {
            "buffer" : 0,
            "byteLength" : 2628,
            "byteOffset" : 197612
        },
        {
            "buffer" : 0,
            "byteLength" : 3504,
            "byteOffset" : 200240
        },
        {
            "buffer" : 0,
            "byteLength" : 1752,
            "byteOffset" : 203744
        },
        {
            "buffer" : 0,
            "byteLength" : 2112,
            "byteOffset" : 205496
        }
    ],
    "buffers" : [
        {
            "byteLength" : 207608,
            "uri" : "data:application/octet-stream;base64,"
        }
    ]
}
