{
    "asset" : {
        "generator" : "Khronos glTF Blender I/O v1.0.5",
        "version" : "2.0"
    },
    "scene" : 0,
    "scenes" : [
        {
            "name" : "Scene",
            "nodes" : [
                0
            ]
        }
    ],
    "nodes" : [
        {
            "mesh" : 0,
            "name" : "Guard"
        }
    ],
    "materials" : [
        {
            "doubleSided" : true,
            "emissiveFactor" : [
                0,
                0,
                0
            ],
            "name" : "Guard_mat",
            "pbrMetallicRoughness" : {
                "baseColorFactor" : [
                    1,
                    1,
                    1,
                    1
                ],
                "baseColorTexture" : {
                    "index" : 0,
                    "texCoord" : 0
                },
                "metallicFactor" : 0.5266666412353516,
                "roughnessFactor" : 1
            }
        }
    ],
    "meshes" : [
        {
            "name" : "Guard_msh",
            "primitives" : [
                {
                    "attributes" : {
                        "POSITION" : 0,
                        "NORMAL" : 1,
                        "TEXCOORD_0" : 2
                    },
                    "indices" : 3,
                    "material" : 0
                }
            ]
        }
    ],
    "textures" : [
        {
            "source" : 0
        }
    ],
    "images" : [
        {
            "bufferView" : 4,
            "mimeType" : "image/png",
            "name" : "GuardWIP"
        }
    ],
    "accessors" : [
        {
            "bufferView" : 0,
            "componentType" : 5126,
            "count" : 1900,
            "max" : [
                0.2204921543598175,
                2.5642447471618652,
                1.17359459400177
            ],
            "min" : [
                -0.1956784427165985,
                -0.0027452530339360237,
                -1.1760867834091187
            ],
            "type" : "VEC3"
        },
        {
            "bufferView" : 1,
            "componentType" : 5126,
            "count" : 1900,
            "type" : "VEC3"
        },
        {
            "bufferView" : 2,
            "componentType" : 5126,
            "count" : 1900,
            "type" : "VEC2"
        },
        {
            "bufferView" : 3,
            "componentType" : 5123,
            "count" : 2844,
            "type" : "SCALAR"
        }
    ],
    "bufferViews" : [
        {
            "buffer" : 0,
            "byteLength" : 22800,
            "byteOffset" : 0
        },
        {
            "buffer" : 0,
            "byteLength" : 22800,
            "byteOffset" : 22800
        },
        {
            "buffer" : 0,
            "byteLength" : 15200,
            "byteOffset" : 45600
        },
        {
            "buffer" : 0,
            "byteLength" : 5688,
            "byteOffset" : 60800
        },
        {
            "buffer" : 0,
            "byteLength" : 193952,
            "byteOffset" : 66488
        }
    ],
    "buffers" : [
        {
            "byteLength" : 260440,
            "uri" : "data:application/octet-stream;base64,"
        }
    ]
}
